<mxfile host="65bd71144e">
    <diagram id="p5hEJxsdAye0_cuorNup" name="第 1 页">
        <mxGraphModel dx="1675" dy="1944" grid="1" gridSize="10" guides="1" tooltips="1" connect="1" arrows="1" fold="1" page="1" pageScale="1" pageWidth="827" pageHeight="1169" math="0" shadow="0">
            <root>
                <mxCell id="0"/>
                <mxCell id="1" parent="0"/>
                <mxCell id="14" value="" style="whiteSpace=wrap;html=1;aspect=fixed;" parent="1" vertex="1">
                    <mxGeometry x="-30" y="-30" width="610" height="610" as="geometry"/>
                </mxCell>
                <mxCell id="11" style="edgeStyle=none;html=1;" parent="1" source="5" target="9" edge="1">
                    <mxGeometry relative="1" as="geometry"/>
                </mxCell>
                <mxCell id="26" style="edgeStyle=none;html=1;exitX=0.5;exitY=0;exitDx=0;exitDy=0;" parent="1" source="5" edge="1">
                    <mxGeometry relative="1" as="geometry">
                        <mxPoint x="280" y="170" as="targetPoint"/>
                    </mxGeometry>
                </mxCell>
                <mxCell id="5" value="&lt;h1&gt;Antlr4&lt;/h1&gt;&lt;div&gt;autogenerated/*：antlr4自动生成代码，提供了CST的访问接口&lt;/div&gt;&lt;div&gt;Antlr4CSTVisitor.cpp：访问函数，对所有非终结符节点&lt;/div&gt;&lt;div&gt;Antlr4Executor.cpp：前端antlr4执行流，调用词法分析器，&lt;/div&gt;&lt;div&gt;parse获取CST，调用上面的Visitor递归访问CST节点生成AST&lt;/div&gt;&lt;div&gt;&lt;span style=&quot;color: rgb(63, 63, 63);&quot;&gt;Antlr4Executor.h：继承FrontExcutor类，是antlr4版本的前端执行接口，&lt;/span&gt;&lt;/div&gt;&lt;div&gt;&lt;span style=&quot;color: rgb(63, 63, 63);&quot;&gt;供main.cpp调用，就是override了run方法&lt;/span&gt;&lt;/div&gt;&lt;div&gt;&lt;br&gt;&lt;/div&gt;&lt;div&gt;&lt;br&gt;&lt;/div&gt;&lt;div&gt;&lt;br&gt;&lt;/div&gt;" style="rounded=0;whiteSpace=wrap;html=1;" parent="1" vertex="1">
                    <mxGeometry x="80" y="170" width="400" height="160" as="geometry"/>
                </mxCell>
                <mxCell id="7" style="edgeStyle=none;html=1;entryX=0.5;entryY=0;entryDx=0;entryDy=0;" parent="1" source="6" target="5" edge="1">
                    <mxGeometry relative="1" as="geometry"/>
                </mxCell>
                <mxCell id="6" value="Src" style="ellipse;whiteSpace=wrap;html=1;aspect=fixed;" parent="1" vertex="1">
                    <mxGeometry x="240" y="-130" width="80" height="80" as="geometry"/>
                </mxCell>
                <mxCell id="8" value="AST.cpp/h 结点创建基本操作+节点类型枚举类&lt;div&gt;AttrType.h 构建AST时使用的数据结构，主要用在语法分析阶段&lt;/div&gt;&lt;div&gt;从CST中提取的信息，转换为这些数据结构，再构建AST节点&lt;/div&gt;&lt;div&gt;&lt;span style=&quot;color: rgb(63, 63, 63);&quot;&gt;FrontExcutor.h：定义了一个抽象类，供三种前端解析方法继承&lt;/span&gt;&lt;/div&gt;" style="rounded=0;whiteSpace=wrap;html=1;" parent="1" vertex="1">
                    <mxGeometry x="80" y="330" width="400" height="120" as="geometry"/>
                </mxCell>
                <mxCell id="9" value="AST&lt;div&gt;root ptr&lt;/div&gt;" style="ellipse;whiteSpace=wrap;html=1;aspect=fixed;" parent="1" vertex="1">
                    <mxGeometry x="240" y="610" width="80" height="80" as="geometry"/>
                </mxCell>
                <mxCell id="15" value="前端&lt;div&gt;frontend/*&lt;/div&gt;" style="text;html=1;align=center;verticalAlign=middle;whiteSpace=wrap;rounded=0;" parent="1" vertex="1">
                    <mxGeometry x="510" y="530" width="60" height="30" as="geometry"/>
                </mxCell>
                <mxCell id="29" style="edgeStyle=none;html=1;exitX=0.5;exitY=1;exitDx=0;exitDy=0;entryX=0.467;entryY=0;entryDx=0;entryDy=0;entryPerimeter=0;" parent="1" source="16" target="31" edge="1">
                    <mxGeometry relative="1" as="geometry">
                        <mxPoint x="300" y="1450" as="targetPoint"/>
                    </mxGeometry>
                </mxCell>
                <mxCell id="30" value="&lt;div&gt;输入符号表：包含&lt;span style=&quot;background-color: light-dark(#ffffff, var(--ge-dark-color, #121212));&quot;&gt;中间 IR 指令序列(&lt;/span&gt;&lt;span style=&quot;color: rgb(63, 63, 63);&quot;&gt;以函数为单位&lt;/span&gt;&lt;span style=&quot;background-color: light-dark(#ffffff, var(--ge-dark-color, #121212));&quot;&gt;)和全局变量&lt;/span&gt;&lt;/div&gt;" style="edgeLabel;html=1;align=center;verticalAlign=middle;resizable=0;points=[];" parent="29" vertex="1" connectable="0">
                    <mxGeometry x="-0.0571" y="-3" relative="1" as="geometry">
                        <mxPoint as="offset"/>
                    </mxGeometry>
                </mxCell>
                <mxCell id="16" value="" style="whiteSpace=wrap;html=1;aspect=fixed;" parent="1" vertex="1">
                    <mxGeometry x="20" y="750" width="560" height="560" as="geometry"/>
                </mxCell>
                <mxCell id="17" value="&lt;br&gt;&lt;div&gt;ir/*&lt;/div&gt;" style="text;html=1;align=center;verticalAlign=middle;whiteSpace=wrap;rounded=0;" parent="1" vertex="1">
                    <mxGeometry x="520" y="1280" width="60" height="30" as="geometry"/>
                </mxCell>
                <mxCell id="21" value="&lt;span style=&quot;color: rgb(0, 0, 0);&quot;&gt;IRGenerator.cpp&lt;/span&gt;&lt;div&gt;指令生成，&lt;span style=&quot;background-color: transparent;&quot;&gt;从根节点递归遍历，翻译出的指令保存在ast_node，翻译成功返回True&lt;/span&gt;&lt;/div&gt;&lt;div&gt;类似于构造AST时的访问函数&lt;/div&gt;" style="rounded=0;whiteSpace=wrap;html=1;" parent="1" vertex="1">
                    <mxGeometry x="20" y="750" width="220" height="140" as="geometry"/>
                </mxCell>
                <mxCell id="22" style="edgeStyle=none;html=1;exitX=0.5;exitY=1;exitDx=0;exitDy=0;entryX=0.463;entryY=0;entryDx=0;entryDy=0;entryPerimeter=0;" parent="1" source="9" target="16" edge="1">
                    <mxGeometry relative="1" as="geometry"/>
                </mxCell>
                <mxCell id="23" value="Generator/*" style="text;html=1;align=center;verticalAlign=middle;whiteSpace=wrap;rounded=0;" parent="1" vertex="1">
                    <mxGeometry x="170" y="860" width="70" height="30" as="geometry"/>
                </mxCell>
                <mxCell id="24" value="各种指令类，继承自Instruction类，由IRGenerator.cpp使用，所有指令会在输出IR时调用toString方法" style="rounded=0;whiteSpace=wrap;html=1;" parent="1" vertex="1">
                    <mxGeometry x="20" y="1110" width="230" height="140" as="geometry"/>
                </mxCell>
                <mxCell id="25" value="Instructions/*" style="text;html=1;align=center;verticalAlign=middle;whiteSpace=wrap;rounded=0;" parent="1" vertex="1">
                    <mxGeometry x="170" y="1220" width="80" height="30" as="geometry"/>
                </mxCell>
                <mxCell id="75" style="edgeStyle=none;html=1;exitX=1;exitY=0.5;exitDx=0;exitDy=0;entryX=0;entryY=0.5;entryDx=0;entryDy=0;" parent="1" source="28" target="76" edge="1">
                    <mxGeometry relative="1" as="geometry">
                        <mxPoint x="680" y="480" as="targetPoint"/>
                    </mxGeometry>
                </mxCell>
                <mxCell id="28" value="Graph.cpp/h：可视化" style="rounded=0;whiteSpace=wrap;html=1;" parent="1" vertex="1">
                    <mxGeometry x="360" y="450" width="120" height="60" as="geometry"/>
                </mxCell>
                <mxCell id="31" value="" style="whiteSpace=wrap;html=1;aspect=fixed;" parent="1" vertex="1">
                    <mxGeometry x="20" y="1470" width="600" height="600" as="geometry"/>
                </mxCell>
                <mxCell id="32" value="backend/*" style="text;html=1;align=center;verticalAlign=middle;whiteSpace=wrap;rounded=0;" parent="1" vertex="1">
                    <mxGeometry x="560" y="2040" width="60" height="30" as="geometry"/>
                </mxCell>
                <mxCell id="38" style="edgeStyle=none;html=1;exitX=1;exitY=0.5;exitDx=0;exitDy=0;entryX=0;entryY=0.5;entryDx=0;entryDy=0;" parent="1" source="33" target="36" edge="1">
                    <mxGeometry relative="1" as="geometry"/>
                </mxCell>
                <mxCell id="39" value="重写run" style="edgeLabel;html=1;align=center;verticalAlign=middle;resizable=0;points=[];" parent="38" vertex="1" connectable="0">
                    <mxGeometry x="-0.0154" y="1" relative="1" as="geometry">
                        <mxPoint as="offset"/>
                    </mxGeometry>
                </mxCell>
                <mxCell id="33" value="&lt;b&gt;CodeGenerator.cpp/h&lt;/b&gt;&lt;div&gt;总的框架，创建FILE* 和调用虚函数run&lt;/div&gt;" style="rounded=0;whiteSpace=wrap;html=1;" parent="1" vertex="1">
                    <mxGeometry x="20" y="1470" width="235" height="60" as="geometry"/>
                </mxCell>
                <mxCell id="34" value="" style="rounded=0;whiteSpace=wrap;html=1;" parent="1" vertex="1">
                    <mxGeometry x="20" y="1560" width="600" height="480" as="geometry"/>
                </mxCell>
                <mxCell id="42" style="edgeStyle=none;html=1;exitX=0.5;exitY=1;exitDx=0;exitDy=0;" parent="1" edge="1">
                    <mxGeometry relative="1" as="geometry">
                        <mxPoint x="480" y="1530" as="sourcePoint"/>
                        <mxPoint x="480" y="1560" as="targetPoint"/>
                    </mxGeometry>
                </mxCell>
                <mxCell id="44" value="重写虚函数" style="edgeLabel;html=1;align=center;verticalAlign=middle;resizable=0;points=[];" parent="42" vertex="1" connectable="0">
                    <mxGeometry x="-0.1195" y="-2" relative="1" as="geometry">
                        <mxPoint as="offset"/>
                    </mxGeometry>
                </mxCell>
                <mxCell id="36" value="&lt;div&gt;&lt;b&gt;CodeGeneratorAsm.cpp/h&lt;/b&gt;&lt;/div&gt;&lt;div&gt;接口类，run方法调用虚函数&lt;/div&gt;&lt;div&gt;虚函数：产生函数头，数据段，代码段，寄存器分配&lt;/div&gt;" style="rounded=0;whiteSpace=wrap;html=1;" parent="1" vertex="1">
                    <mxGeometry x="340" y="1470" width="280" height="60" as="geometry"/>
                </mxCell>
                <mxCell id="40" value="&lt;span style=&quot;color: rgb(0, 0, 0);&quot;&gt;backend/&lt;/span&gt;Arm32" style="text;html=1;align=center;verticalAlign=middle;whiteSpace=wrap;rounded=0;" parent="1" vertex="1">
                    <mxGeometry x="530" y="2000" width="90" height="40" as="geometry"/>
                </mxCell>
                <mxCell id="48" style="edgeStyle=none;html=1;exitX=0.5;exitY=1;exitDx=0;exitDy=0;" parent="1" source="41" target="46" edge="1">
                    <mxGeometry relative="1" as="geometry"/>
                </mxCell>
                <mxCell id="49" value="调用 run" style="edgeLabel;html=1;align=center;verticalAlign=middle;resizable=0;points=[];" parent="48" vertex="1" connectable="0">
                    <mxGeometry x="-0.0218" y="-1" relative="1" as="geometry">
                        <mxPoint as="offset"/>
                    </mxGeometry>
                </mxCell>
                <mxCell id="41" value="&lt;b&gt;CodeGeneratorArm32.cpp/h&lt;/b&gt;&lt;div&gt;重写：&lt;span style=&quot;background-color: rgb(251, 251, 251); color: rgb(63, 63, 63);&quot;&gt;产生函数头，数据段，代码段，寄存器分配&lt;/span&gt;&lt;/div&gt;&lt;div&gt;以及做了一些变量栈内存分配的工作&lt;/div&gt;" style="rounded=0;whiteSpace=wrap;html=1;" parent="1" vertex="1">
                    <mxGeometry x="340" y="1560" width="280" height="90" as="geometry"/>
                </mxCell>
                <mxCell id="55" style="edgeStyle=none;html=1;exitX=0.5;exitY=1;exitDx=0;exitDy=0;entryX=0.5;entryY=0;entryDx=0;entryDy=0;" parent="1" source="45" target="58" edge="1">
                    <mxGeometry relative="1" as="geometry">
                        <mxPoint x="465" y="2130" as="targetPoint"/>
                    </mxGeometry>
                </mxCell>
                <mxCell id="56" value="Output方法输出指令" style="edgeLabel;html=1;align=center;verticalAlign=middle;resizable=0;points=[];" parent="55" vertex="1" connectable="0">
                    <mxGeometry x="-0.6133" y="4" relative="1" as="geometry">
                        <mxPoint as="offset"/>
                    </mxGeometry>
                </mxCell>
                <mxCell id="45" value="&lt;b&gt;ILocArm32.cpp/h&lt;/b&gt;&lt;div&gt;class ArmInst：Arm 指令类&lt;/div&gt;&lt;div&gt;class ILocArm32：创建维护输出 ArmInst&lt;/div&gt;" style="rounded=0;whiteSpace=wrap;html=1;" parent="1" vertex="1">
                    <mxGeometry x="50" y="1840" width="310" height="90" as="geometry"/>
                </mxCell>
                <mxCell id="50" style="edgeStyle=none;html=1;exitX=0.5;exitY=1;exitDx=0;exitDy=0;entryX=0.5;entryY=0;entryDx=0;entryDy=0;" parent="1" source="46" target="45" edge="1">
                    <mxGeometry relative="1" as="geometry"/>
                </mxCell>
                <mxCell id="51" value="&lt;div&gt;输入IRInst，ILoc实例，func，寄存器分配方法&lt;/div&gt;处理IRInst，维护ILoc" style="edgeLabel;html=1;align=center;verticalAlign=middle;resizable=0;points=[];" parent="50" vertex="1" connectable="0">
                    <mxGeometry x="-0.0933" relative="1" as="geometry">
                        <mxPoint as="offset"/>
                    </mxGeometry>
                </mxCell>
                <mxCell id="46" value="&lt;b&gt;InstSelectorArm32.cpp/h&lt;/b&gt;&lt;div&gt;run方法：根据 IRInst 每条指令的IROP类型调用处理函数&lt;/div&gt;&lt;div&gt;使用ILoc提供的方法创建指令并填充进ILoc&lt;/div&gt;" style="rounded=0;whiteSpace=wrap;html=1;" parent="1" vertex="1">
                    <mxGeometry x="310" y="1700" width="310" height="90" as="geometry"/>
                </mxCell>
                <mxCell id="53" value="" style="curved=1;endArrow=classic;html=1;entryX=0.291;entryY=0.022;entryDx=0;entryDy=0;exitX=0;exitY=0.5;exitDx=0;exitDy=0;entryPerimeter=0;" parent="1" source="41" target="45" edge="1">
                    <mxGeometry width="50" height="50" relative="1" as="geometry">
                        <mxPoint x="255" y="1605" as="sourcePoint"/>
                        <mxPoint x="225" y="1885" as="targetPoint"/>
                        <Array as="points">
                            <mxPoint x="160" y="1640"/>
                            <mxPoint x="130" y="1740"/>
                        </Array>
                    </mxGeometry>
                </mxCell>
                <mxCell id="54" value="调用InstSelectorArm32::run后，调用ILocArm32::Output" style="edgeLabel;html=1;align=center;verticalAlign=middle;resizable=0;points=[];" parent="53" vertex="1" connectable="0">
                    <mxGeometry x="-0.0496" y="4" relative="1" as="geometry">
                        <mxPoint x="7" y="37" as="offset"/>
                    </mxGeometry>
                </mxCell>
                <mxCell id="58" value="&lt;span style=&quot;color: rgb(0, 0, 0);&quot;&gt;Arm32 汇编代码&lt;/span&gt;" style="rounded=0;whiteSpace=wrap;html=1;" parent="1" vertex="1">
                    <mxGeometry x="145" y="2130" width="120" height="60" as="geometry"/>
                </mxCell>
                <mxCell id="68" style="edgeStyle=none;html=1;" parent="1" source="59" target="16" edge="1">
                    <mxGeometry relative="1" as="geometry"/>
                </mxCell>
                <mxCell id="69" style="edgeStyle=none;html=1;exitX=0;exitY=0.5;exitDx=0;exitDy=0;" parent="1" source="59" target="61" edge="1">
                    <mxGeometry relative="1" as="geometry"/>
                </mxCell>
                <mxCell id="70" value="聚合" style="edgeLabel;html=1;align=center;verticalAlign=middle;resizable=0;points=[];" parent="69" vertex="1" connectable="0">
                    <mxGeometry x="-0.0129" y="-2" relative="1" as="geometry">
                        <mxPoint as="offset"/>
                    </mxGeometry>
                </mxCell>
                <mxCell id="59" value="由Value使用，表示值的类型" style="rounded=0;whiteSpace=wrap;html=1;" parent="1" vertex="1">
                    <mxGeometry x="330" y="941" width="250" height="140" as="geometry"/>
                </mxCell>
                <mxCell id="60" value="Types/*" style="text;html=1;align=center;verticalAlign=middle;whiteSpace=wrap;rounded=0;" parent="1" vertex="1">
                    <mxGeometry x="520" y="1051" width="60" height="30" as="geometry"/>
                </mxCell>
                <mxCell id="61" value="Value.cpp&lt;div&gt;基础类，主要存储了IRname，use-define链，寄存器id和内存偏移，后者在生成Arm32汇编时会用到&lt;/div&gt;&lt;div&gt;很多类继承自Value，详细请看类图，IR生成阶段会用到这些Value子类&lt;/div&gt;" style="rounded=0;whiteSpace=wrap;html=1;" parent="1" vertex="1">
                    <mxGeometry x="20" y="930" width="270" height="151" as="geometry"/>
                </mxCell>
                <mxCell id="62" value="Values/*" style="text;html=1;align=center;verticalAlign=middle;whiteSpace=wrap;rounded=0;" parent="1" vertex="1">
                    <mxGeometry x="220" y="1051" width="60" height="30" as="geometry"/>
                </mxCell>
                <mxCell id="64" style="edgeStyle=none;html=1;entryX=0.458;entryY=0.982;entryDx=0;entryDy=0;entryPerimeter=0;" parent="1" source="24" target="61" edge="1">
                    <mxGeometry relative="1" as="geometry"/>
                </mxCell>
                <mxCell id="65" value="继承" style="edgeLabel;html=1;align=center;verticalAlign=middle;resizable=0;points=[];" parent="64" vertex="1" connectable="0">
                    <mxGeometry x="-0.0703" y="-2" relative="1" as="geometry">
                        <mxPoint as="offset"/>
                    </mxGeometry>
                </mxCell>
                <mxCell id="73" style="edgeStyle=none;html=1;exitX=0.5;exitY=1;exitDx=0;exitDy=0;entryX=0.424;entryY=0.015;entryDx=0;entryDy=0;entryPerimeter=0;" parent="1" source="21" target="61" edge="1">
                    <mxGeometry relative="1" as="geometry"/>
                </mxCell>
                <mxCell id="74" value="使用 Value 类" style="edgeLabel;html=1;align=center;verticalAlign=middle;resizable=0;points=[];" parent="73" vertex="1" connectable="0">
                    <mxGeometry x="-0.1819" y="2" relative="1" as="geometry">
                        <mxPoint as="offset"/>
                    </mxGeometry>
                </mxCell>
                <mxCell id="76" value="AST 可视化图片" style="whiteSpace=wrap;html=1;aspect=fixed;" parent="1" vertex="1">
                    <mxGeometry x="680" y="435" width="90" height="90" as="geometry"/>
                </mxCell>
                <mxCell id="78" value="&lt;div&gt;&lt;b&gt;function.cpp&lt;/b&gt;&lt;/div&gt;&lt;div&gt;用来保存一个函数内的所有信息，例如指令块，作用域控制等&lt;br&gt;&lt;b&gt;ir/*&lt;/b&gt;剩余文件略&lt;/div&gt;" style="text;html=1;align=center;verticalAlign=middle;whiteSpace=wrap;rounded=0;" parent="1" vertex="1">
                    <mxGeometry x="382" y="1169" width="196" height="105" as="geometry"/>
                </mxCell>
                <mxCell id="83" style="edgeStyle=none;html=1;exitX=0.5;exitY=1;exitDx=0;exitDy=0;" parent="1" source="79" edge="1">
                    <mxGeometry relative="1" as="geometry">
                        <mxPoint x="690" y="1290" as="targetPoint"/>
                    </mxGeometry>
                </mxCell>
                <mxCell id="85" value="输出全局信息" style="edgeLabel;html=1;align=center;verticalAlign=middle;resizable=0;points=[];" parent="83" vertex="1" connectable="0">
                    <mxGeometry x="-0.3637" relative="1" as="geometry">
                        <mxPoint as="offset"/>
                    </mxGeometry>
                </mxCell>
                <mxCell id="79" value="Module.cpp&lt;div&gt;存储全局符号等信息，例如函数，全局变量&lt;/div&gt;" style="rounded=0;whiteSpace=wrap;html=1;" parent="1" vertex="1">
                    <mxGeometry x="580" y="1090" width="230" height="120" as="geometry"/>
                </mxCell>
                <mxCell id="80" value="symboltable/*" style="text;html=1;align=center;verticalAlign=middle;whiteSpace=wrap;rounded=0;" parent="1" vertex="1">
                    <mxGeometry x="720" y="1180" width="90" height="30" as="geometry"/>
                </mxCell>
                <mxCell id="82" value="线性 IR 指令" style="rounded=0;whiteSpace=wrap;html=1;" parent="1" vertex="1">
                    <mxGeometry x="630" y="1290" width="120" height="60" as="geometry"/>
                </mxCell>
            </root>
        </mxGraphModel>
    </diagram>
</mxfile>